<svg width="19" height="19" viewBox="0 0 19 19" fill="none" xmlns="http://www.w3.org/2000/svg">
<path d="M17.0576 18.4399H1.05762C0.792401 18.4399 0.538047 18.3346 0.35051 18.147C0.162974 17.9595 0.0576172 17.7052 0.0576172 17.4399V1.43994C0.0576172 1.17472 0.162974 0.920371 0.35051 0.732835C0.538047 0.545298 0.792401 0.439941 1.05762 0.439941H17.0576C17.3228 0.439941 17.5772 0.545298 17.7647 0.732835C17.9523 0.920371 18.0576 1.17472 18.0576 1.43994V17.4399C18.0576 17.7052 17.9523 17.9595 17.7647 18.147C17.5772 18.3346 17.3228 18.4399 17.0576 18.4399ZM7.05762 8.43994V10.4399H8.05762V14.4399H11.0576V12.4399H10.0576V8.43994H7.05762ZM8.05762 4.43994V6.43994H10.0576V4.43994H8.05762Z" fill="#C0CCDA"/>
</svg>
